<!DOCTYPE svg PUBLIC "-//W3C//DTD SVG 1.1//EN" "http://www.w3.org/Graphics/SVG/1.1/DTD/svg11.dtd">

<!-- Uploaded to: SVG Repo, www.svgrepo.com, Transformed by: SVG Repo Mixer Tools -->
<svg height="800px" width="800px" version="1.1" id="Layer_1" xmlns="http://www.w3.org/2000/svg" xmlns:xlink="http://www.w3.org/1999/xlink" viewBox="0 0 501.333 501.333" xml:space="preserve" fill="#000000">

<g id="SVGRepo_bgCarrier" stroke-width="0"/>

<g id="SVGRepo_tracerCarrier" stroke-linecap="round" stroke-linejoin="round"/>

<g id="SVGRepo_iconCarrier"> <path style="fill:#B31312;" d="M250.667,0C230.4,0,214.4,16,214.4,36.267s16,36.267,36.267,36.267s36.267-16,36.267-36.267 S270.933,0,250.667,0z M250.667,57.6c-11.733,0-21.333-9.6-21.333-21.333s9.6-21.333,21.333-21.333S272,24.533,272,36.267 S262.4,57.6,250.667,57.6z"/> <circle style="fill:#000;" cx="250.667" cy="444.8" r="56.533"/> <path style="fill:#B31312;" d="M393.6,225.067c0-72.533-37.333-174.933-142.933-174.933s-142.933,102.4-142.933,174.933 S12.8,368,12.8,368v55.467h237.867h237.867V368C488.533,369.067,393.6,297.6,393.6,225.067z"/> </g>

</svg>
